<svg xmlns="http://www.w3.org/2000/svg" width="32" height="32" viewBox="0 0 32 32" id="trello">
  <!-- Board outline -->
  <path fill="#444" d="M28.482 4.844v22.883c0 .282-.103.526-.309.732s-.45.309-.731.309H4.559c-.282 0-.525-.103-.731-.309s-.309-.45-.309-.732V4.844c0-.282.103-.526.309-.731s.45-.309.731-.309h22.883c.282 0 .526.103.731.309s.309.45.309.731z"></path>
  <!-- White card fills -->
  <rect x="6.119" y="6.405" width="8.321" height="17.162" rx="0.374" ry="0.374" fill="white"/>
  <rect x="17.04" y="6.405" width="8.321" height="10.921" rx="0.374" ry="0.374" fill="white"/>
</svg>
