<svg xmlns="http://www.w3.org/2000/svg" enable-background="new 0 0 24 24" viewBox="0 0 24 24" id="trello">
  <path fill="#0079c0" d="m20 0h-16c-2.209 0-4 1.791-4 4v16c0 2.209 1.791 4 4 4h16c2.209 0 4-1.791 4-4v-16c0-2.209-1.791-4-4-4z"></path>
  <path fill="#fff" d="M10.69 17.974c0 .771-.645 1.396-1.44 1.396h-4.44c-.795 0-1.44-.626-1.44-1.396v-13.208c0-.771.645-1.396 1.44-1.396h4.44c.795 0 1.44.625 1.44 1.396zM20.63 12.43c0 .794-.645 1.44-1.44 1.44h-4.44c-.795 0-1.44-.646-1.44-1.44v-7.62c0-.795.646-1.44 1.44-1.44h4.44c.795 0 1.44.645 1.44 1.44z"></path>
  <path d="m20.438 24h-16.876c-1.964 0-3.562-1.598-3.562-3.562v-16.876c0-1.964 1.598-3.562 3.562-3.562h16.875c1.965 0 3.563 1.598 3.563 3.562v16.875c0 1.965-1.598 3.563-3.562 3.563zm-16.876-22.5c-1.137 0-2.062.925-2.062 2.062v16.875c0 1.137.925 2.062 2.062 2.062h16.875c1.138 0 2.062-.925 2.062-2.062v-16.875c0-1.137-.925-2.062-2.062-2.062zm5.626 18.394h-4.163c-1.158 0-2.101-.942-2.101-2.1v-12.769c0-1.158.942-2.1 2.101-2.1h4.162c1.158 0 2.1.942 2.1 2.1v12.769c0 1.158-.941 2.1-2.099 2.1zm-4.163-15.469c-.331 0-.601.269-.601.6v12.769c0 .331.27.6.601.6h4.162c.331 0 .6-.269.6-.6v-12.769c0-.331-.269-.6-.6-.6zm13.95 9.844h-4.162c-1.158 0-2.1-.942-2.1-2.1v-7.144c0-1.158.941-2.1 2.1-2.1h4.162c1.158 0 2.101.942 2.101 2.1v7.144c-.001 1.158-.943 2.1-2.101 2.1zm-4.163-9.844c-.331 0-.6.269-.6.6v7.144c0 .331.269.6.6.6h4.162c.331 0 .601-.269.601-.6v-7.144c0-.331-.27-.6-.601-.6z"></path>
</svg>
