<svg xmlns="http://www.w3.org/2000/svg" enable-background="new 0 0 24 24" viewBox="0 0 24 24" id="trello">
  <!-- White background fill -->
  <rect x="1" y="1" width="22" height="22" fill="white" rx="2.375" ry="2.375"/>
  <path fill="#FF7A55" d="M19.13,14.053h-4.255c-1.036,0-1.88-0.844-1.88-1.88V4.87c0-1.037,0.844-1.88,1.88-1.88h4.255c1.036,0,1.88,0.843,1.88,1.88v7.302C21.01,13.209,20.166,14.053,19.13,14.053z"></path>
  <path fill="#110638" d="M20.625,24H3.375C1.514,24,0,22.486,0,20.625V3.375C0,1.514,1.514,0,3.375,0h17.25C22.486,0,24,1.514,24,3.375v17.25C24,22.486,22.486,24,20.625,24z M3.375,1C2.065,1,1,2.065,1,3.375v17.25C1,21.935,2.065,23,3.375,23h17.25C21.935,23,23,21.935,23,20.625V3.375C23,2.065,21.935,1,20.625,1H3.375z"></path>
  <path fill="#110638" d="M9.125,19.803H4.87c-1.036,0-1.88-0.844-1.88-1.88V4.87c0-1.037,0.844-1.88,1.88-1.88h4.255c1.036,0,1.88,0.843,1.88,1.88v13.052C11.005,18.959,10.161,19.803,9.125,19.803z M4.87,3.99c-0.485,0-0.88,0.395-0.88,0.88v13.052c0,0.485,0.395,0.88,0.88,0.88h4.255c0.485,0,0.88-0.395,0.88-0.88V4.87c0-0.485-0.395-0.88-0.88-0.88H4.87z"></path>
</svg>
