<svg xmlns="http://www.w3.org/2000/svg" viewBox="0 0 48 48" id="trello">
  <g>
    <g>
      <rect width="12" height="17" x="22" y="6" fill="#f1f2f2" rx="2" ry="2"></rect>
      <rect width="12" height="30" x="6" y="6" fill="#f1f2f2" rx="2" ry="2"></rect>
      <path fill="#49aaee" d="M47 7v34a6 6 0 0 1-6 6H7a6 6 0 0 1-6-6V7a6 6 0 0 1 6-6h34a6 6 0 0 1 6 6ZM34 21V8a2.006 2.006 0 0 0-2-2h-8a2.006 2.006 0 0 0-2 2v13a2.006 2.006 0 0 0 2 2h8a2.006 2.006 0 0 0 2-2ZM18 34V8a2.006 2.006 0 0 0-2-2H8a2.006 2.006 0 0 0-2 2v26a2.006 2.006 0 0 0 2 2h8a2.006 2.006 0 0 0 2-2Z"></path>
      <path fill="#474c54" d="M41 48H7a7.008 7.008 0 0 1-7-7V7a7.008 7.008 0 0 1 7-7h34a7.008 7.008 0 0 1 7 7v34a7.008 7.008 0 0 1-7 7ZM7 2a5.006 5.006 0 0 0-5 5v34a5.006 5.006 0 0 0 5 5h34a5.006 5.006 0 0 0 5-5V7a5.006 5.006 0 0 0-5-5Z"></path>
      <path fill="#474c54" d="M16 37H8a3 3 0 0 1-3-3V8a3 3 0 0 1 3-3h8a3 3 0 0 1 3 3v26a3 3 0 0 1-3 3zM8 7a1 1 0 0 0-1 1v26a1 1 0 0 0 1 1h8a1 1 0 0 0 1-1V8a1 1 0 0 0-1-1zm24 17h-8a3 3 0 0 1-3-3V8a3 3 0 0 1 3-3h8a3 3 0 0 1 3 3v13a3 3 0 0 1-3 3zM24 7a1 1 0 0 0-1 1v13a1 1 0 0 0 1 1h8a1 1 0 0 0 1-1V8a1 1 0 0 0-1-1z"></path>
    </g>
  </g>
</svg>
